# xmcd
#
# Track frame offsets:
#	150
#	22042
#	41720
#	57865
#	76945
#	96847
#	118175
#	139830
#	157195
#	176540
#
# Disc length: 2564 seconds
#
# Revision: 0
# Processed by: cddbd v1.4PL0 Copyright (c) Steve Scherf et al.
# Submitted via: dBpowerAMP V4.0
#
DISCID=860a020a
DTITLE=Demet - Sikayetim Var
DYEAR=1900
DGENRE=Pop
TTITLE0=Sikayetim Var
TTITLE1=Sana Kaldi
TTITLE2=Ask Perisi
TTITLE3=Alacakaranlik
TTITLE4=Ihanet Ettim
TTITLE5=Ne Aci
TTITLE6=Zar Attik
TTITLE7=Anlatma Bana
TTITLE8=Söylemem
TTITLE9=Teslim Ol
EXTD=
EXTT0=
EXTT1=
EXTT2=
EXTT3=
EXTT4=
EXTT5=
EXTT6=
EXTT7=
EXTT8=
EXTT9=
PLAYORDER=
